<?xml version="1.0" encoding="UTF-8"?>
<svg version="1.1" xmlns="http://www.w3.org/2000/svg" width="215" height="121">
<path d="M0 0 C2.475 0.495 2.475 0.495 5 1 C5 1.66 5 2.32 5 3 C7.07553648 3.5534764 8.84365964 4 11 4 C11.33 3.67 11.66 3.34 12 3 C13.51928038 2.92820036 15.04167482 2.91607993 16.5625 2.9375 C17.38878906 2.94652344 18.21507813 2.95554688 19.06640625 2.96484375 C19.70449219 2.97644531 20.34257813 2.98804688 21 3 C21 2.01 21 1.02 21 0 C23.475 0.495 23.475 0.495 26 1 C26 1.66 26 2.32 26 3 C29.29102008 3.90786761 31.81119049 4.59440475 35 3 C43.65342163 2.08038551 43.65342163 2.08038551 47.5625 4.75 C50.40599315 9.20068494 50.28467184 14.09423807 50.5625 19.25 C50.60568359 19.99507812 50.64886719 20.74015625 50.69335938 21.5078125 C50.79896725 23.338349 50.89994201 25.16915176 51 27 C53.475 27.99 53.475 27.99 56 29 C55.34 30.32 54.68 31.64 54 33 C47.5111035 33.36729603 47.5111035 33.36729603 45.29931641 31.77783203 C43.64983511 29.52087548 43.59096276 28.14670297 43.5234375 25.3671875 C43.4925 24.47902344 43.4615625 23.59085938 43.4296875 22.67578125 C43.41164062 21.75152344 43.39359375 20.82726562 43.375 19.875 C43.32421025 18.03895054 43.2697262 16.20299825 43.2109375 14.3671875 C43.19337402 13.55362793 43.17581055 12.74006836 43.15771484 11.90185547 C43.20542599 9.9900092 43.20542599 9.9900092 42 9 C36.97500306 9.28469203 36.97500306 9.28469203 33 12 C32.72313935 14.03467434 32.72313935 14.03467434 32.8046875 16.3515625 C32.81435547 17.62773438 32.81435547 17.62773438 32.82421875 18.9296875 C32.84097656 19.81914063 32.85773438 20.70859375 32.875 21.625 C32.88402344 22.5221875 32.89304688 23.419375 32.90234375 24.34375 C32.9259503 26.56276586 32.9588769 28.78125077 33 31 C33.969375 31.474375 34.93875 31.94875 35.9375 32.4375 C39 34 39 34 40 35 C42.25415378 35.28289181 44.50840656 35.4477119 46.7734375 35.62109375 C49 36 49 36 52 38 C52 38.99 52 39.98 52 41 C48.17010894 42.80230168 45.21878192 43.19622241 41 43 C41.185625 43.78375 41.37125 44.5675 41.5625 45.375 C42 48 42 48 41 50 C39.68 50 38.36 50 37 50 C36.505 45.545 36.505 45.545 36 41 C35.34 41 34.68 41 34 41 C34.20625 41.9075 34.4125 42.815 34.625 43.75 C35.0127245 47.11027897 34.80411967 48.24075815 33 51 C32.34 51 31.68 51 31 51 C31 49.02 31 47.04 31 45 C30.34 44.67 29.68 44.34 29 44 C28.731875 44.804375 28.46375 45.60875 28.1875 46.4375 C27.795625 47.283125 27.40375 48.12875 27 49 C25.515 49.495 25.515 49.495 24 50 C24.144375 49.443125 24.28875 48.88625 24.4375 48.3125 C25.02769128 45.88615805 25.523429 43.45093655 26 41 C22.63408573 43.72478774 21.55773724 47.06856792 20 51 C18.515 50.505 18.515 50.505 17 50 C17.99 47.03 18.98 44.06 20 41 C16.04 41.66 12.08 42.32 8 43 C8 42.01 8 41.02 8 40 C5.03 40.495 5.03 40.495 2 41 C2 40.34 2 39.68 2 39 C6.44275567 36.27525576 11.02606866 36.61819311 16.1015625 36.44140625 C17.05804688 36.29574219 18.01453125 36.15007812 19 36 C19.66 35.01 20.32 34.02 21 33 C23.625 32.3125 23.625 32.3125 26 32 C25.89000392 28.24940197 25.75940131 24.49979656 25.625 20.75 C25.5940625 19.68652344 25.563125 18.62304688 25.53125 17.52734375 C25.49257812 16.50253906 25.45390625 15.47773437 25.4140625 14.421875 C25.36693115 13.00793457 25.36693115 13.00793457 25.31884766 11.56542969 C24.99399023 8.95164571 24.32323838 7.25646966 23 5 C22.67 5.99 22.34 6.98 22 8 C19.96875 8.6953125 19.96875 8.6953125 17.5 9.125 C14.46069634 9.47887416 14.46069634 9.47887416 12 11 C11.84285346 12.63256758 11.74914586 14.27135338 11.68359375 15.91015625 C11.64169922 16.89951172 11.59980469 17.88886719 11.55664062 18.90820312 C11.51732422 19.94912109 11.47800781 20.99003906 11.4375 22.0625 C11.39431641 23.10728516 11.35113281 24.15207031 11.30664062 25.22851562 C11.20018775 27.81886884 11.0981724 30.40932186 11 33 C9.02 33 7.04 33 5 33 C4.97494385 32.29391602 4.9498877 31.58783203 4.92407227 30.86035156 C4.80792631 27.65672491 4.68528397 24.45337882 4.5625 21.25 C4.52318359 20.13882813 4.48386719 19.02765625 4.44335938 17.8828125 C4.38051758 16.27792969 4.38051758 16.27792969 4.31640625 14.640625 C4.27974854 13.65610352 4.24309082 12.67158203 4.20532227 11.65722656 C3.94635443 8.25024824 3.94635443 8.25024824 3 5 C2.01 4.67 1.02 4.34 0 4 C0 2.68 0 1.36 0 0 Z M33 36 C33.33 36.66 33.66 37.32 34 38 C34.99 37.67 35.98 37.34 37 37 C35.68 36.67 34.36 36.34 33 36 Z M29 38 C30 40 30 40 30 40 Z M46 40 C47 42 47 42 47 42 Z " fill="#000000" transform="translate(72,43)"/>
<path d="M0 0 C0.94681641 -0.03738281 1.89363281 -0.07476562 2.86914062 -0.11328125 C7.39609119 -0.17014455 10.77336968 -0.1987858 14.421875 2.6875 C17.43158827 6.07096851 17.89024736 7.86565332 17.8125 12.375 C17.02655536 14.89493499 16.02050012 17.00731977 14.8125 19.375 C15.286875 19.82875 15.76125 20.2825 16.25 20.75 C19.31176736 23.93423806 19.14821023 26.88290491 19.09375 31.1171875 C18.66915394 34.5257503 17.33954082 36.12115278 14.8125 38.375 C10.48409309 40.64642087 6.34008929 40.64413147 1.5625 40.5625 C0.8303125 40.56185547 0.098125 40.56121094 -0.65625 40.56054688 C-6.046875 40.515625 -6.046875 40.515625 -7.1875 39.375 C-7.34721977 37.00161361 -7.4467433 34.65381728 -7.50390625 32.27734375 C-7.5350779 31.21405602 -7.5350779 31.21405602 -7.56687927 30.12928772 C-7.63244598 27.85712695 -7.6912923 25.58484736 -7.75 23.3125 C-7.79317849 21.77537817 -7.83679255 20.2382685 -7.88085938 18.70117188 C-7.98813449 14.9259041 -8.08938137 11.1505164 -8.1875 7.375 C-9.8375 7.705 -11.4875 8.035 -13.1875 8.375 C-13.5175 7.715 -13.8475 7.055 -14.1875 6.375 C-10.37582103 -0.72858354 -7.67631635 0.11266108 0 0 Z M-1.1875 5.375 C-1.1875 9.005 -1.1875 12.635 -1.1875 16.375 C4.96976062 16.93134143 4.96976062 16.93134143 10.4375 14.6875 C12.04683204 12.44712033 12.04683204 12.44712033 11.75 9.75 C10.94594454 7.05210239 10.94594454 7.05210239 7.8125 5.375 C4.78920744 5.1139212 1.85373758 5.28684819 -1.1875 5.375 Z M-1.1875 22.375 C-1.1875 26.335 -1.1875 30.295 -1.1875 34.375 C1.27351378 35.60550689 2.53676183 35.36100075 5.25 35.0625 C6.03246094 34.98386719 6.81492187 34.90523437 7.62109375 34.82421875 C10.09097118 34.46113351 10.09097118 34.46113351 12.8125 32.375 C13.38320519 27.78263725 13.38320519 27.78263725 11.64453125 23.6640625 C9.07780268 21.85804879 7.22710363 22.07801399 4.125 22.1875 C2.371875 22.249375 0.61875 22.31125 -1.1875 22.375 Z " fill="#000000" transform="translate(20.1875,35.625)"/>
<path d="M0 0 C2.536875 0.061875 5.07375 0.12375 7.6875 0.1875 C8.0175 8.1075 8.3475 16.0275 8.6875 24.1875 C10.0075 24.5175 11.3275 24.8475 12.6875 25.1875 C12.6875 26.5075 12.6875 27.8275 12.6875 29.1875 C11.6875 30.1875 11.6875 30.1875 8.875 30.3125 C6.24122372 30.20921466 4.20664951 29.81728738 1.6875 29.1875 C1.0275 29.5175 0.3675 29.8475 -0.3125 30.1875 C-2.3359375 30.35546875 -2.3359375 30.35546875 -4.6875 30.375 C-5.45835937 30.38917969 -6.22921875 30.40335938 -7.0234375 30.41796875 C-9.59771793 30.15878352 -11.13023613 29.56407573 -13.3125 28.1875 C-17.40203267 22.96198604 -17.9377397 18.57988837 -17.69921875 12 C-17.03032469 7.13531596 -14.99481164 4.48634355 -11.1875 1.546875 C-7.42685129 -0.23125781 -4.0586 -0.14035146 0 0 Z M-9.25 6.625 C-12.17706793 10.26166016 -12.60884084 13.57775359 -12.3125 18.1875 C-10.75068681 21.857761 -9.65339404 22.9602373 -6.3125 25.1875 C-3.23584973 25.10528291 -3.23584973 25.10528291 -0.3125 24.1875 C2.21525351 20.39586973 1.91193035 17.37875969 1.8125 13 C1.80347656 12.25041016 1.79445312 11.50082031 1.78515625 10.72851562 C1.76162578 8.88137346 1.72575561 7.03439588 1.6875 5.1875 C-3.99117002 4.89987444 -3.99117002 4.89987444 -9.25 6.625 Z " fill="#000000" transform="translate(179.3125,45.8125)"/>
<path d="M0 0 C2.93423195 1.79646854 4.47205355 2.9441071 6 6 C6.46327182 10.09223437 6.4484975 12.27920044 4.25 15.8125 C-0.49707394 19.00764592 -5.38869925 19.40038732 -11 20 C-8.53755372 23.04230159 -8.53755372 23.04230159 -5 24.20703125 C-4.01 24.01173828 -4.01 24.01173828 -3 23.8125 C-2.3090625 23.68617187 -1.618125 23.55984375 -0.90625 23.4296875 C-0.2771875 23.28789063 0.351875 23.14609375 1 23 C1.825 22.814375 2.65 22.62875 3.5 22.4375 C4.2425 22.2209375 4.2425 22.2209375 5 22 C5.66 23.65 6.32 25.3 7 27 C1.72598818 30.33095484 -2.93544676 30.75046311 -9 30 C-12.76292473 28.39875543 -14.84097382 26.45444189 -17 23 C-18.99047724 17.02856828 -18.40954638 11.47155763 -15.9609375 5.765625 C-12.43305069 -0.7165085 -6.70878501 -1.12363887 0 0 Z M-9.375 6.625 C-11.1094656 9.15998818 -11.66333088 10.96997794 -12 14 C-10.39482903 13.91266424 -8.79078338 13.80447776 -7.1875 13.6875 C-6.29417969 13.62949219 -5.40085937 13.57148437 -4.48046875 13.51171875 C-1.67580154 12.93311811 -0.66845685 12.29976485 1 10 C0.77242269 7.83700789 0.77242269 7.83700789 0 6 C-4.92967433 4.71691326 -4.92967433 4.71691326 -9.375 6.625 Z " fill="#000000" transform="translate(63,46)"/>
<path d="M0 0 C1.65 0 3.3 0 5 0 C5.33 11.88 5.66 23.76 6 36 C7.32 36.33 8.64 36.66 10 37 C10 38.32 10 39.64 10 41 C9 42 9 42 6.125 42.25 C3 42 3 42 1.32597351 40.72941589 C-1.00876032 37.68431299 -0.36105026 33.85862581 -0.29296875 30.17578125 C-0.28872391 29.31438034 -0.28447906 28.45297943 -0.28010559 27.56547546 C-0.26331248 24.81416569 -0.22565956 22.06358838 -0.1875 19.3125 C-0.17245396 17.4472762 -0.15876541 15.58204093 -0.14648438 13.71679688 C-0.11340693 9.14424902 -0.0616206 4.5722487 0 0 Z " fill="#000000" transform="translate(148,34)"/>
<path d="M0 0 C1.98 0 3.96 0 6 0 C6.33 7.92 6.66 15.84 7 24 C9.475 24.99 9.475 24.99 12 26 C11 29 11 29 9 30 C6.0625 30.3125 6.0625 30.3125 3 30 C0.69888257 27.74488477 0.0450252 26.37556506 -0.34057617 23.15917969 C-0.32486572 22.09086914 -0.30915527 21.02255859 -0.29296875 19.921875 C-0.2784668 18.18164062 -0.2784668 18.18164062 -0.26367188 16.40625 C-0.23853516 15.1996875 -0.21339844 13.993125 -0.1875 12.75 C-0.17396484 11.52796875 -0.16042969 10.3059375 -0.14648438 9.046875 C-0.1111398 6.03080502 -0.0617956 3.01562513 0 0 Z " fill="#000000" transform="translate(197,46)"/>
<path d="M0 0 C1.65 0 3.3 0 5 0 C5 7.92 5 15.84 5 24 C6.98 24.33 8.96 24.66 11 25 C11 25.99 11 26.98 11 28 C9 30 9 30 6.0625 30.3125 C3 30 3 30 1.3269043 28.86791992 C-0.59716645 26.15935225 -0.33938058 24.09602089 -0.29296875 20.80078125 C-0.28330078 19.59228516 -0.27363281 18.38378906 -0.26367188 17.13867188 C-0.23853516 15.87603516 -0.21339844 14.61339844 -0.1875 13.3125 C-0.17396484 12.03826172 -0.16042969 10.76402344 -0.14648438 9.45117188 C-0.11108199 6.30035943 -0.0616979 3.15038955 0 0 Z " fill="#000000" transform="translate(132,46)"/>
<path d="M0 0 C2.125 0.9375 2.125 0.9375 4 2 C3.67 3.65 3.34 5.3 3 7 C2.01 7.33 1.02 7.66 0 8 C-0.99 7.34 -1.98 6.68 -3 6 C-2.625 3.5625 -2.625 3.5625 -2 1 C-1.34 0.67 -0.68 0.34 0 0 Z " fill="#000000" transform="translate(134,34)"/>
<path d="M0 0 C0.598125 0.226875 1.19625 0.45375 1.8125 0.6875 C1.855221 2.35361905 1.85313832 4.02132885 1.8125 5.6875 C0.8125 6.6875 0.8125 6.6875 -1.75 6.75 C-2.9565625 6.7190625 -2.9565625 6.7190625 -4.1875 6.6875 C-4.875 4.875 -4.875 4.875 -5.1875 2.6875 C-3.58493056 0.24147296 -2.95482043 -0.4221172 0 0 Z " fill="#000000" transform="translate(201.1875,34.3125)"/>
</svg>
